<svg width="33" height="14" viewBox="0 0 33 14" fill="none" xmlns="http://www.w3.org/2000/svg">
<path d="M7.67344 9.47C7.23411 9.87233 6.73897 10.2091 6.20341 10.47C5.58328 10.7946 4.90192 10.9854 4.20341 11.03C4.03112 11.0536 3.85565 11.032 3.69431 10.9671C3.53297 10.9022 3.39136 10.7963 3.28342 10.66C3.12118 10.4537 3.02684 10.2021 3.0134 9.94C2.94796 7.6879 3.1223 5.43523 3.53342 3.22C3.54385 3.17023 3.56678 3.12393 3.60001 3.08545C3.63325 3.04697 3.67571 3.01756 3.72342 3C3.77428 3.0063 3.82153 3.02938 3.85776 3.06561C3.894 3.10184 3.91714 3.14916 3.92344 3.20001L3.60343 5.84C3.42681 7.19905 3.36988 8.57099 3.43339 9.94C3.43994 10.0706 3.48144 10.197 3.55356 10.3061C3.62569 10.4152 3.72582 10.5028 3.84342 10.56C4.16721 10.6728 4.51963 10.6728 4.84342 10.56C5.30036 10.4511 5.74327 10.29 6.16343 10.08C6.83282 9.74199 7.45759 9.3221 8.02341 8.82999C8.08341 8.82999 8.17342 8.83 8.15342 8.94C8.07797 9.06721 7.98728 9.18475 7.8834 9.29001L7.67344 9.47Z" fill="black" stroke="black" stroke-width="0.2"/>
<path d="M11.4835 10.5C11.1975 10.7423 10.8525 10.9045 10.4835 10.97C10.3008 10.9845 10.1171 10.9598 9.94464 10.8978C9.77221 10.8357 9.61501 10.7376 9.48346 10.61C9.36111 10.4874 9.25971 10.3455 9.18341 10.19C9.12548 10.0793 9.08179 9.96167 9.05341 9.83999C8.95438 9.90999 8.8469 9.96713 8.73346 10.01C8.608 10.0586 8.46891 10.0586 8.34344 10.01C8.31504 9.97453 8.29956 9.93044 8.29956 9.885C8.29956 9.83956 8.31504 9.79547 8.34344 9.76C8.41184 9.72331 8.4864 9.69957 8.56342 9.68999L8.74341 9.62999L9.04346 9.45998C8.99016 8.90568 9.01706 8.34658 9.12341 7.79998C9.21396 7.37192 9.40989 6.97324 9.69342 6.64C9.84606 6.5217 10.0226 6.43803 10.2109 6.39486C10.3991 6.35168 10.5945 6.35004 10.7834 6.39C10.992 6.48907 11.1789 6.62841 11.3334 6.80004C11.4878 6.97167 11.6068 7.17219 11.6834 7.39C11.6995 7.50022 11.6899 7.61268 11.6552 7.71853C11.6204 7.82437 11.5617 7.92071 11.4835 7.99999C11.3678 8.13072 11.2442 8.25428 11.1135 8.36998L10.9334 8.54C10.8812 8.5882 10.8343 8.64184 10.7935 8.7C10.5874 8.88932 10.3704 9.0663 10.1434 9.23C9.91343 9.39 9.69346 9.54998 9.48346 9.67998C9.49484 9.84853 9.54382 10.0124 9.62689 10.1595C9.70996 10.3066 9.82498 10.4332 9.96344 10.53C10.0964 10.5984 10.2439 10.6341 10.3934 10.6341C10.543 10.6341 10.6904 10.5984 10.8234 10.53C11.0839 10.4347 11.3246 10.2923 11.5334 10.11C11.8898 9.82778 12.1686 9.45959 12.3434 9.04C12.4034 8.98 12.5034 9.09998 12.5034 9.14998C12.4692 9.40425 12.3768 9.64719 12.2335 9.85997C12.0194 10.1122 11.7662 10.3283 11.4835 10.5ZM9.83344 6.93999C9.64687 7.19876 9.51111 7.49058 9.43341 7.79998C9.32454 8.23437 9.29075 8.6842 9.33344 9.12999L10.0334 8.62999C10.2923 8.4464 10.5303 8.23515 10.7434 7.99999C10.9396 7.86299 11.0869 7.66674 11.1635 7.43999C11.0534 7.18514 10.8816 6.96174 10.6635 6.79C10.5225 6.75303 10.3752 6.7473 10.2319 6.77321C10.0885 6.79912 9.9525 6.85604 9.83344 6.93999Z" fill="black" stroke="black" stroke-width="0.2"/>
<path d="M14.9934 10.94C14.8181 10.9674 14.6388 10.9357 14.4835 10.85C14.3153 10.6879 14.2091 10.4721 14.1834 10.24C14.0784 9.25946 14.0784 8.27054 14.1834 7.29001C14.0234 7.60001 13.8535 7.87999 13.6735 8.17999C13.4693 8.5377 13.2279 8.87289 12.9534 9.17999C12.8799 9.23176 12.799 9.27221 12.7134 9.29999C12.6739 9.30866 12.633 9.30866 12.5934 9.29999C12.5934 9.29999 12.5934 9.22999 12.5934 9.17999C12.946 8.76663 13.2543 8.31752 13.5134 7.84C13.7834 7.37 14.0034 6.90001 14.3034 6.45001C14.3634 6.35001 14.5434 6.40001 14.6334 6.45001C14.6645 6.49465 14.6859 6.54528 14.6962 6.59866C14.7066 6.65205 14.7056 6.70701 14.6934 6.76001C14.4784 7.9625 14.4615 9.19205 14.6434 10.4C14.6607 10.4517 14.6909 10.4981 14.7311 10.5349C14.7714 10.5716 14.8204 10.5975 14.8734 10.61C15.0175 10.6053 15.1539 10.5443 15.2534 10.44C15.379 10.323 15.4868 10.1882 15.5734 10.04C15.6185 9.95713 15.6553 9.87004 15.6834 9.78C15.7257 9.68235 15.787 9.59399 15.8635 9.51999C15.9006 9.54655 15.9289 9.58357 15.9449 9.62631C15.961 9.66905 15.9639 9.71559 15.9534 9.76001L15.9034 9.97C15.8323 10.2396 15.6948 10.4872 15.5034 10.69C15.3612 10.8209 15.184 10.9077 14.9934 10.94ZM15.2935 3.85001C14.8107 3.64765 14.3079 3.49681 13.7935 3.39999C13.6735 3.39999 13.6635 3.14999 13.7935 3.04999C14.4898 3.05694 15.1592 3.32043 15.6735 3.79001C15.7217 3.82687 15.7592 3.87598 15.7821 3.93225C15.805 3.98853 15.8123 4.0499 15.8034 4.10999C15.7112 4.0752 15.6211 4.03513 15.5334 3.98999L15.2935 3.85001Z" fill="black" stroke="black" stroke-width="0.2"/>
<path d="M21.5834 9.47C21.1441 9.87233 20.649 10.2091 20.1134 10.47C19.4933 10.7946 18.812 10.9854 18.1134 11.03C17.9412 11.0536 17.7657 11.032 17.6043 10.9671C17.443 10.9022 17.3013 10.7963 17.1934 10.66C17.0312 10.4537 16.9369 10.2021 16.9234 9.94C16.858 7.6879 17.0323 5.43523 17.4434 3.22C17.4538 3.17023 17.4768 3.12393 17.51 3.08545C17.5432 3.04697 17.5857 3.01756 17.6334 3C17.6843 3.0063 17.7316 3.02938 17.7678 3.06561C17.804 3.10184 17.8271 3.14916 17.8334 3.20001L17.5134 5.84C17.3368 7.19905 17.2799 8.57099 17.3434 9.94C17.35 10.0706 17.3915 10.197 17.4636 10.3061C17.5357 10.4152 17.6358 10.5028 17.7534 10.56C18.0772 10.6728 18.4296 10.6728 18.7534 10.56C19.2103 10.4511 19.6532 10.29 20.0734 10.08C20.7428 9.74199 21.3676 9.3221 21.9334 8.82999C21.9934 8.82999 22.0834 8.83 22.0634 8.94C21.9876 9.0697 21.8933 9.18762 21.7834 9.29001L21.5834 9.47Z" fill="black" stroke="black" stroke-width="0.2"/>
<path d="M25.3434 10.5C25.0575 10.7423 24.7125 10.9045 24.3434 10.97C24.1608 10.9845 23.9771 10.9598 23.8046 10.8978C23.6322 10.8357 23.475 10.7376 23.3434 10.61C23.2211 10.4874 23.1198 10.3455 23.0435 10.19C22.9855 10.0793 22.9418 9.96167 22.9135 9.83999C22.8144 9.90999 22.7069 9.96713 22.5934 10.01C22.468 10.0586 22.3289 10.0586 22.2034 10.01C22.175 9.97453 22.1595 9.93044 22.1595 9.885C22.1595 9.83956 22.175 9.79547 22.2034 9.76C22.2718 9.72331 22.3464 9.69957 22.4235 9.68999L22.6035 9.62999L22.9034 9.45998C22.8501 8.90568 22.8771 8.34658 22.9835 7.79998C23.074 7.37192 23.2699 6.97324 23.5534 6.64C23.706 6.5217 23.8826 6.43803 24.0709 6.39486C24.2591 6.35168 24.4545 6.35004 24.6434 6.39C24.852 6.48907 25.0389 6.62841 25.1934 6.80004C25.3478 6.97167 25.4668 7.17219 25.5435 7.39C25.5596 7.50022 25.5499 7.61268 25.5152 7.71853C25.4805 7.82437 25.4217 7.92071 25.3434 7.99999C25.2277 8.13072 25.1042 8.25428 24.9734 8.36998L24.7935 8.54C24.7412 8.5882 24.6943 8.64184 24.6534 8.7C24.4474 8.88932 24.2303 9.0663 24.0034 9.23C23.7734 9.39 23.5534 9.54998 23.3434 9.67998C23.3548 9.84853 23.4039 10.0124 23.4869 10.1595C23.57 10.3066 23.685 10.4332 23.8234 10.53C23.9564 10.5984 24.1038 10.6341 24.2534 10.6341C24.403 10.6341 24.5504 10.5984 24.6834 10.53C24.9438 10.4347 25.1845 10.2923 25.3934 10.11C25.7498 9.82778 26.0285 9.45959 26.2034 9.04C26.2634 8.98 26.3635 9.09998 26.3635 9.14998C26.3292 9.40425 26.2368 9.64719 26.0934 9.85997C25.8794 10.1122 25.6262 10.3283 25.3434 10.5ZM23.6934 6.93999C23.5069 7.19876 23.3712 7.49058 23.2935 7.79998C23.1863 8.23464 23.1491 8.68363 23.1834 9.12999C23.4134 8.97999 23.6534 8.80999 23.8934 8.62999C24.1523 8.4464 24.3904 8.23515 24.6035 7.99999C24.7997 7.86299 24.9469 7.66674 25.0234 7.43999C24.9134 7.18514 24.7415 6.96174 24.5234 6.79C24.3825 6.75303 24.2352 6.7473 24.0919 6.77321C23.9485 6.79912 23.8125 6.85604 23.6934 6.93999Z" fill="black" stroke="black" stroke-width="0.2"/>
<path d="M28.8535 10.94C28.6782 10.9674 28.4988 10.9357 28.3434 10.85C28.1753 10.6879 28.0692 10.4721 28.0435 10.24C27.9384 9.25946 27.9384 8.27054 28.0435 7.29001C27.8835 7.60001 27.7134 7.87999 27.5334 8.17999C27.3293 8.5377 27.0879 8.87289 26.8134 9.17999C26.7399 9.23176 26.659 9.27221 26.5734 9.29999C26.5339 9.30866 26.493 9.30866 26.4534 9.29999C26.4534 9.29999 26.4534 9.22999 26.4534 9.17999C26.806 8.76663 27.1143 8.31752 27.3734 7.84C27.6334 7.37 27.8635 6.90001 28.1635 6.45001C28.2235 6.35001 28.4034 6.40001 28.4934 6.45001C28.5245 6.49465 28.5459 6.54528 28.5562 6.59866C28.5665 6.65205 28.5656 6.70701 28.5534 6.76001C28.3383 7.9625 28.3215 9.19205 28.5034 10.4C28.5207 10.4517 28.5509 10.4981 28.5912 10.5349C28.6314 10.5716 28.6804 10.5975 28.7335 10.61C28.8775 10.6053 29.014 10.5443 29.1135 10.44C29.2391 10.323 29.3468 10.1882 29.4334 10.04C29.4784 9.95713 29.5153 9.87004 29.5435 9.78C29.5858 9.68235 29.647 9.59399 29.7234 9.51999C29.7606 9.54655 29.789 9.58357 29.805 9.62631C29.821 9.66905 29.8239 9.71559 29.8134 9.76001L29.7634 9.97C29.6923 10.2396 29.5548 10.4872 29.3635 10.69C29.2212 10.8209 29.044 10.9077 28.8535 10.94ZM29.1534 3.85001C28.6707 3.64765 28.1679 3.49681 27.6534 3.39999C27.5334 3.39999 27.5234 3.14999 27.6534 3.04999C28.3498 3.05694 29.0192 3.32043 29.5334 3.79001C29.5817 3.82687 29.6192 3.87598 29.6421 3.93225C29.665 3.98853 29.6723 4.0499 29.6635 4.10999C29.5712 4.0752 29.4811 4.03513 29.3934 3.98999L29.1534 3.85001Z" fill="black" stroke="black" stroke-width="0.2"/>
</svg>
