<svg width="94" height="32" viewBox="0 0 94 32" fill="none" xmlns="http://www.w3.org/2000/svg">
<path d="M23.408 0.0641461C24.2508 -0.251668 25.3828 0.655847 25.2292 1.53583C25.1031 2.22129 24.8896 2.88782 24.5945 3.51922C24.159 4.48147 23.6646 5.41609 23.115 6.31805C22.0893 7.97828 21.0401 9.62762 19.9304 11.2311C18.0874 13.8935 15.8159 16.1903 13.5613 18.4977C11.8143 20.2907 10.0417 22.0631 8.28198 23.8513C8.14999 23.9852 8.00174 24.1626 7.97632 24.3356C7.81989 25.4424 7.60917 26.5521 7.58569 27.6647C7.57299 28.267 7.8227 28.9111 8.0896 29.4723C8.27973 29.8963 8.62422 30.232 9.05347 30.4098C9.4827 30.5876 9.96404 30.5947 10.3982 30.4294C11.5117 30.0276 12.6236 29.5882 13.6628 29.03C16.5647 27.4685 19.2379 25.5499 21.866 23.572C22.2002 23.3168 22.4429 22.9161 22.6892 22.5563C23.6046 21.2026 24.7834 20.0468 26.1541 19.1569C26.7982 18.7309 27.5628 18.5249 28.3337 18.57C29.29 18.6228 30.1708 19.4499 30.0134 20.2321C29.9283 20.6543 29.6259 21.0834 29.3123 21.405C28.0451 22.7083 26.4236 23.4374 24.7546 24.0681C24.4047 24.2 24.042 24.2984 23.6882 24.4216C23.5798 24.4541 23.4778 24.5063 23.3884 24.5759C22.6962 25.1713 22.4503 26.9363 23.0037 27.6647C23.211 27.9237 23.4974 28.1081 23.8191 28.1891C24.8817 28.4237 25.8396 27.9835 26.7839 27.5847C29.8833 26.2764 32.7317 24.4969 35.6199 22.7936C36.5008 22.2745 37.4303 21.8372 38.3103 21.3151C38.6034 21.144 38.819 20.8241 39.0505 20.5573C39.3918 20.1643 39.7054 19.7511 40.0496 19.36C40.2959 19.0804 40.5873 19.0062 40.908 19.2702C41.3291 19.6172 41.4336 19.9417 41.1707 20.321C40.5772 21.1735 39.932 21.9958 39.3562 22.863C38.4275 24.259 37.5251 25.6713 36.6492 27.0993C36.4243 27.465 36.3153 27.9172 36.2009 28.3327C36.0866 28.7482 36.3889 29.0506 36.8289 28.905C37.5678 28.6606 38.3175 28.4033 38.9968 28.0309C41.4088 26.7081 43.7949 25.3353 46.1882 23.9792C47.4778 23.2488 48.7678 22.5211 50.0447 21.7702C50.2604 21.6406 50.4356 21.4526 50.5496 21.2282C51.2564 19.7618 51.8554 18.2425 52.6453 16.8288C53.9105 14.5741 55.2363 12.3461 56.6482 10.1794C57.5848 8.73825 58.6831 7.39383 59.7771 6.06122C60.5397 5.13339 61.3503 4.22129 62.2615 3.44598C63.0553 2.77138 63.9938 2.24244 64.9197 1.7536C65.4808 1.45347 66.0237 1.74341 66.4587 2.18915C66.8938 2.63498 66.8623 3.19637 66.6541 3.69891C66.174 4.85357 65.7045 6.02479 65.0896 7.10907C64.2957 8.50823 63.4609 9.90636 62.4685 11.1667C60.9912 13.0438 59.3863 14.8248 57.7849 16.6003C56.6068 17.9046 55.342 19.131 54.1267 20.402C53.9038 20.6357 53.7422 20.9271 53.5291 21.1716C53.2817 21.4502 53.0597 21.8345 52.7468 21.9479C51.9043 22.254 51.5527 22.8847 51.324 23.6667C50.9319 25.0042 50.3405 26.3056 50.5007 27.7468C50.5985 28.5857 50.6747 29.4316 51.3806 30.0524C51.8616 30.4757 52.3888 30.535 52.9753 30.3845C54.302 30.0432 55.5053 29.4087 56.6277 28.6618C58.5919 27.3546 60.518 25.9867 62.4207 24.5895C62.9721 24.1848 63.4407 23.6341 63.8572 23.0827C64.8094 21.8176 65.759 20.5633 67.0662 19.6276C67.6747 19.1879 68.3813 18.9032 69.1248 18.7985C70.0105 18.6714 71.323 19.5093 71.0808 20.5192C70.9787 20.9081 70.7819 21.2664 70.5085 21.5612C69.4585 22.6962 68.0843 23.3496 66.6951 23.9606C66.2045 24.1765 65.6875 24.3307 65.1931 24.5388C65.023 24.6111 64.7908 24.7339 64.7478 24.8796C64.5464 25.5765 64.2957 26.2822 64.2527 26.9968C64.2038 27.7829 64.7566 28.3035 65.5535 28.2458C66.281 28.1974 66.9971 28.0364 67.6755 27.7692C70.1245 26.7632 72.3889 25.4173 74.6375 24.0261C76.0063 23.1764 77.3829 22.3396 78.7517 21.489C78.8967 21.3879 79.0251 21.2645 79.1306 21.1227C79.5617 20.5929 79.9817 20.0549 80.4099 19.5222C80.6817 19.1849 80.9896 19.1323 81.3396 19.4118C81.7355 19.7285 81.8211 20.0413 81.5584 20.4235C81.09 21.107 80.5843 21.7684 80.1121 22.4528C79.2342 23.7247 78.3327 24.9837 77.5115 26.2927C77.1312 26.9047 76.8887 27.6102 76.6316 28.2946C76.4625 28.7453 76.7337 29.0709 77.2019 28.9665C77.679 28.8634 78.14 28.6946 78.571 28.4655C81.1121 27.0733 83.6306 25.6449 86.1726 24.2497C88.2796 23.0901 90.4065 21.9581 92.5281 20.8181C92.8986 20.6176 93.2925 20.7063 93.4675 21.0134C93.6464 21.3272 93.5264 21.8617 93.1882 22.0407C92.6847 22.3057 92.14 22.4945 91.6443 22.7712C89.6316 23.8994 87.6257 25.0397 85.6267 26.1921C83.3672 27.4866 81.1177 28.7999 78.8542 30.0866C78.4529 30.3034 78.0326 30.4832 77.5984 30.6227C76.5904 30.9698 75.3311 30.0485 75.0847 29.2233C74.7327 28.0422 75.1974 27.121 75.7224 26.1784C76.0206 25.6426 76.3675 25.1341 76.6921 24.614L76.5935 24.4929C76.4568 24.5553 76.3152 24.613 76.1843 24.6882C74.005 25.9563 71.8549 27.2805 69.6335 28.4714C68.6284 29.0101 67.4981 29.3431 66.3943 29.6638C65.4235 29.9443 64.4909 29.7258 63.657 29.1266C62.955 28.6211 62.6718 27.8933 62.5339 27.0876C62.4274 26.4759 62.3743 26.4681 61.8494 26.8268C60.0651 28.049 58.3154 29.3265 56.4578 30.4343C55.3834 31.0717 54.1524 31.468 52.9646 31.9001C52.0593 32.2286 50.5367 31.6208 49.9216 30.7722C48.9919 29.4884 48.7408 28.0405 48.9753 26.5046C49.0966 25.7195 49.3101 24.9527 49.4705 24.1706C49.49 24.0728 49.45 23.8766 49.4177 23.8766C49.2902 23.8592 49.1602 23.8814 49.0457 23.9401C48.3446 24.3156 47.6392 24.6906 46.9548 25.0983C44.5487 26.5307 42.1618 27.9951 39.7449 29.4079C38.953 29.8579 38.1306 30.2528 37.2839 30.5886C35.8977 31.1582 34.2087 29.6225 34.4959 28.0417C34.7188 26.8176 35.3603 25.7694 36.0505 24.7546C36.1444 24.6187 36.2223 24.4686 36.3074 24.3249L36.2253 24.2184C36.0835 24.2546 35.9452 24.3037 35.8123 24.3649C33.9439 25.4277 32.0947 26.5258 30.2078 27.5544C28.5779 28.4441 26.9082 29.257 25.075 29.6725C23.6115 30.0038 22.0865 29.4844 21.4099 28.28C21.142 27.8009 21.0487 27.2123 20.9363 26.6608C20.8493 26.2336 20.7892 26.1645 20.4187 26.4157C19.0314 27.3582 17.6712 28.3424 16.2625 29.2507C14.5202 30.3731 12.6924 31.331 10.6746 31.8825C8.90497 32.3655 6.95859 31.3112 6.37183 29.5798C6.04797 28.6224 5.89272 27.6157 5.91187 26.6052C5.91382 26.4605 5.82501 26.3124 5.77808 26.1667C5.63833 26.2253 5.47352 26.2497 5.36109 26.3473C4.15269 27.3358 2.96696 28.354 1.73902 29.3181C1.42598 29.5402 1.05664 29.6714 0.673586 29.696C0.479021 29.7122 0.184393 29.4734 0.0710465 29.2731C-0.0824576 29.0013 0.0169622 28.6991 0.328859 28.528C2.60202 27.2814 4.33542 25.3699 6.23999 23.6725C6.55083 23.3949 6.60805 22.8351 6.7898 22.4079C7.42628 20.913 7.9647 19.3647 8.72827 17.9382C9.9328 15.6865 11.2423 13.4876 12.5955 11.322C14.1661 8.80442 15.9709 6.44032 17.9851 4.26141C19.1026 3.05299 20.1798 1.80244 21.6267 0.965513C22.2025 0.632161 22.7892 0.297823 23.408 0.0641461ZM68.9246 20.3288C68.4651 20.5674 67.9875 20.7942 67.5847 21.111V21.11C67.14 21.461 66.7697 21.9065 66.3171 22.3571C66.5155 22.4495 66.5515 22.4808 66.573 22.4743C67.6111 22.139 68.5253 21.6 69.2585 20.7848C69.3328 20.7028 69.36 20.4804 69.3025 20.402C69.251 20.3588 69.1888 20.3289 69.1228 20.3161C69.0568 20.3033 68.9885 20.308 68.9246 20.3288ZM28.2029 20.154C27.9624 20.1461 27.6669 20.0435 27.4919 20.1462C26.8926 20.4981 26.3188 20.8918 25.7751 21.3249L25.7771 21.3239C25.4379 21.5947 25.1748 21.9603 24.8757 22.2848L24.9685 22.4186C25.1505 22.3923 25.3304 22.3503 25.5056 22.2946C26.3981 21.9251 27.2285 21.4516 27.9031 20.7526C28.0516 20.5992 28.1052 20.3563 28.2029 20.154ZM23.2195 1.91766C23.1618 1.86301 22.957 1.88844 22.8689 1.95086C21.9938 2.56783 21.0368 3.10523 20.2849 3.8493C19.1229 4.9879 18.0487 6.21281 17.0701 7.51239C15.67 9.3886 14.343 11.3275 13.0994 13.3122C12.0287 15.0194 11.1083 16.8208 10.1433 18.5925L10.1453 18.5915C9.79923 19.2269 9.51763 19.8975 9.20484 20.5563L9.34644 20.6843C9.49133 20.604 9.62822 20.5093 9.75366 20.4011C11.3072 18.7742 12.8701 17.1598 14.3982 15.5124C16.3477 13.4103 18.1951 11.2232 19.821 8.85321C21.0862 7.00819 22.238 5.10475 23.113 3.04169C23.2147 2.80274 23.2884 2.55242 23.3328 2.29657C23.3416 2.22914 23.3366 2.16057 23.3171 2.0954C23.2976 2.03001 23.2641 1.96929 23.2195 1.91766ZM64.8386 3.52215C64.6912 3.55047 64.5262 3.54769 64.3982 3.61493C64.1384 3.74825 63.8912 3.90547 63.6599 4.08368C62.0478 5.34782 60.7228 6.88163 59.4978 8.51434C57.3126 11.4261 55.5419 14.5905 53.7996 17.7741L53.8015 17.7731C53.5738 18.1895 53.3866 18.6292 53.1804 19.0612L53.3367 19.1755C53.4549 19.0777 53.5836 18.989 53.6912 18.8815C54.1487 18.4181 54.6115 17.9583 55.0535 17.4811C56.6285 15.7721 58.2979 14.1346 59.7468 12.321C61.1772 10.5346 62.4192 8.59381 63.658 6.66669C64.18 5.85528 64.4945 4.90786 64.8787 4.01141C64.9364 3.88039 64.8552 3.68739 64.8386 3.52215ZM85.4812 12.5973C85.7325 12.3774 86.0141 12.4232 86.2742 12.6501C87.1382 13.4046 87.11 13.3807 86.2585 14.1384C85.495 14.8179 84.8072 15.5828 84.1013 16.3249C83.894 16.5419 83.712 16.7 83.3875 16.5671C82.747 16.3041 82.4646 16.0433 82.4578 15.5583C82.4988 15.4692 82.5527 15.24 82.6941 15.1091C83.6112 14.2584 84.5406 13.4213 85.4812 12.5973ZM44.8132 12.4811C45.1436 12.1813 45.4585 12.141 45.8025 12.4528C45.9299 12.5532 46.0623 12.6472 46.2 12.7331C46.5509 12.9893 46.5353 13.4349 46.2185 13.7282C45.3748 14.5064 44.5466 15.3025 43.7224 16.1013C43.5113 16.3036 43.3487 16.5799 42.991 16.4011C42.5354 16.1724 41.9813 16.0432 41.9334 15.277C42.0037 15.1646 42.0885 14.9432 42.2439 14.7995C43.0906 14.0173 43.9597 13.2565 44.8132 12.4811Z" fill="black"/>
</svg>
