<svg width="558" height="124" viewBox="0 0 558 124" fill="none" xmlns="http://www.w3.org/2000/svg">
<path d="M66.3195 92.3511L76.3994 92.4039L50.0229 4.19059L0.0444464 92.0041L10.6283 92.0595L23.7302 68.4398L59.5137 68.6272L66.3195 92.3511ZM28.5643 59.645L47.1362 26.0998L57.0399 59.7941L28.5643 59.645Z" fill="#222222"/>
<path d="M100.325 0.673921L88.5041 92.4673L97.576 92.5148L100.335 70.9829L102.867 68.7282L120.76 92.6362L132.351 92.6969L109.702 62.7159L135.271 40.4214L123.427 40.3594L101.78 59.6503L109.397 0.721421L100.325 0.673921Z" fill="#222222"/>
<path d="M152.139 40.5098L145.44 92.7654L154.511 92.8129L161.211 40.5573L152.139 40.5098ZM152.743 21.4867C152.735 22.9986 153.232 24.3873 154.234 25.4005C155.488 26.6671 156.871 27.1784 158.509 27.1869C159.895 27.1942 161.913 26.8267 163.56 25.0714C164.7 23.9433 165.591 22.3099 165.603 20.042C165.611 18.404 165.114 17.0154 163.986 15.8755C162.984 14.8622 161.726 14.3516 159.962 14.3424C157.442 14.3292 155.547 15.4533 154.532 16.708C153.518 17.8367 152.753 19.5967 152.743 21.4867Z" fill="#222222"/>
<path d="M204.584 93.0751L220.838 93.1602C236.839 93.244 250.207 91.0459 260.594 80.5162C270.602 70.3624 272.941 56.7665 272.992 47.0646C273.064 33.2048 268.068 24.8625 262.928 19.7956C253.4 10.6736 240.051 9.21764 230.602 9.16816L215.356 9.08833L204.584 93.0751ZM223.5 17.9511L231.689 17.994C237.611 18.025 247.94 18.7091 255.71 26.8139C261.851 33.1461 263.195 41.0913 263.16 47.7692C263.126 54.3211 261.804 66.1583 253.318 74.556C245.591 82.2016 234.996 84.4142 221.262 84.3423L215.088 84.31L223.5 17.9511Z" fill="#222222"/>
<path d="M326.231 76.1978C324.705 78.9618 322.041 82.3499 319.385 84.2261C315.971 86.6022 312.314 87.0871 309.29 87.0712C305.51 87.0514 301.987 86.151 298.979 83.1112C296.723 80.8314 294.225 76.6602 294.39 69.227L335.087 69.4401C336.536 57.4775 333.045 50.2771 329.286 46.3514C326.278 43.3116 321.128 40.1346 312.308 40.0884C305.378 40.0521 299.447 41.9111 294 47.3006C288.427 52.8155 284.984 60.7356 284.937 69.6815C284.886 79.3834 288.636 85.1991 291.769 88.4915C296.906 93.9365 302.822 95.1015 308.996 95.1338C313.406 95.1569 318.953 94.5559 324.137 91.181C327.677 88.8055 331.48 84.4154 333.896 80.396L326.231 76.1978ZM295.941 61.675C296.842 58.0257 298.749 54.7596 301.029 52.5035C304.196 49.37 307.856 48.1292 312.518 48.1536C315.416 48.1688 319.193 48.6926 322.077 51.4797C324.71 54.0135 326.326 58.054 326.433 61.8346L295.941 61.675Z" fill="#222222"/>
<path d="M382.742 49.9073C381.747 47.5081 379.995 45.2309 377.987 43.5823C374.85 41.0459 371.83 40.4001 368.554 40.3829C364.522 40.3618 360.36 41.096 356.687 44.7308C354.28 47.1123 352.246 50.6297 352.221 55.4176C352.205 58.4415 352.946 61.2175 355.076 63.6226C356.704 65.5212 359.844 67.4277 361.981 68.4469L364.871 69.848C366.631 70.7392 369.395 72.2657 370.273 73.0263C372.03 74.4216 373.028 76.1908 373.016 78.4588C373.003 80.9788 372.108 83.4941 370.336 85.1228C367.93 87.2523 364.906 87.3624 363.268 87.3539C360.874 87.3413 358.735 86.7001 356.98 84.9269C355.477 83.281 354.357 80.6291 353.863 78.7365L345.908 81.9709C346.895 85.8821 349.144 89.5479 352.03 91.9571C355.542 94.8735 359.194 95.3966 362.974 95.4164C366.753 95.4362 373.308 94.9665 377.996 89.951C380.784 86.9416 382.445 82.6662 382.47 77.8783C382.487 74.4763 381.622 71.3217 379.117 68.5366C377.487 66.89 374.474 64.8582 372.463 63.8397L367.688 61.4207C365.802 60.5288 363.791 59.6362 362.538 58.3696C361.785 57.6097 361.035 56.4718 361.045 54.7078C361.054 52.9438 361.692 51.3091 363.085 50.0564C364.604 48.8043 366.244 48.4349 368.134 48.4448C369.898 48.454 371.282 48.8393 372.66 50.2325C373.412 50.9925 374.288 52.1311 374.784 53.7717L382.742 49.9073Z" fill="#222222"/>
<path d="M401.635 41.8161L394.936 94.0718L404.008 94.1193L410.707 41.8636L401.635 41.8161ZM402.239 22.793C402.231 24.305 402.728 25.6936 403.731 26.7069C404.984 27.9735 406.367 28.4847 408.005 28.4933C409.391 28.5006 411.409 28.1331 413.057 26.3777C414.196 25.2497 415.087 23.6163 415.099 21.3484C415.107 19.7104 414.611 18.3217 413.483 17.1818C412.48 16.1686 411.223 15.658 409.459 15.6487C406.939 15.6355 405.043 16.7596 404.028 18.0143C403.014 19.143 402.249 20.9031 402.239 22.793Z" fill="#222222"/>
<path d="M468.251 49.599C466.377 46.5652 463.867 44.536 461.731 43.3908C457.711 41.1017 452.798 40.824 450.152 40.8102C440.451 40.7594 434.382 44.6336 430.708 48.3945C425.135 54.0353 422.191 62.8401 422.147 71.2819C422.118 76.6999 423.216 83.5097 428.605 89.082C432.74 93.5137 438.398 95.8114 445.832 95.8503C449.486 95.8694 453.019 95.0059 455.924 93.6351C459.966 91.6402 462.249 88.8802 463.392 87.1221L462.597 94.678C462.067 99.4633 461.403 106.138 456.717 110.649C454.437 112.906 450.267 115.278 443.463 115.242C440.061 115.224 435.906 114.573 432.646 111.531C428.884 107.984 428.53 103.446 428.549 99.7918L428.552 99.2879L419.606 99.241L419.602 99.997C419.586 103.147 419.795 111.212 425.435 117.038C428.568 120.204 433.971 123.257 443.042 123.304C453.752 123.36 460.073 119.361 463.494 115.851C469.701 109.583 470.751 101.399 471.802 93.2142L478.243 42.2173L469.172 42.1698L468.251 49.599ZM451.118 48.8793C456.41 48.907 459.802 50.9408 462.057 53.3467C465.064 56.6384 466.549 61.6863 466.527 65.9702C466.497 71.7662 464.316 79.1888 459.758 83.323C457.353 85.4525 453.182 87.8247 446.882 87.7917C442.976 87.7712 439.202 86.6174 436.194 83.5777C433.437 80.7912 431.571 76.2453 431.6 70.7014C431.637 63.6455 434.188 57.6108 438.493 53.6013C442.038 50.3438 446.204 48.8536 451.118 48.8793Z" fill="#222222"/>
<path d="M486.836 94.553L495.908 94.6005L499.453 67.2767C500.107 62.618 501.147 56.4494 504.695 52.8139C506.722 50.6825 510.006 49.1877 514.038 49.2088C517.314 49.2259 519.828 50.3731 521.332 51.893C523.713 54.2995 523.948 57.5768 523.937 59.7187C523.924 62.1127 523.397 66.52 523.134 68.6607L519.847 94.7258L528.919 94.7733L532.597 66.1902C532.991 63.0422 533.385 60.1462 533.398 57.5003C533.419 53.5943 532.811 49.3071 529.302 45.7606C525.542 41.9609 520.632 41.1792 516.852 41.1594C513.954 41.1442 510.424 41.5037 507.137 43.5026C504.356 45.252 502.074 48.0121 501.82 48.3888L502.607 42.3448L493.535 42.2973L486.836 94.553Z" fill="#222222"/>
<path d="M544.283 90.4437C544.273 92.3337 545.021 93.7236 545.773 94.4836C546.526 95.2435 547.907 96.1328 550.049 96.144C551.687 96.1525 553.201 95.6565 554.593 94.5297C556.619 92.7763 557.007 90.7623 557.014 89.5023C557.023 87.7384 556.401 86.2231 555.398 85.2098C554.395 84.1966 553.013 83.5593 551.249 83.5501C549.485 83.5408 547.592 84.1609 546.324 85.5403C545.691 86.167 544.296 87.7977 544.283 90.4437Z" fill="#222222"/>
</svg>
