<svg width="64" height="64" viewBox="0 0 64 64" fill="none" xmlns="http://www.w3.org/2000/svg">
<g clip-path="url(#clip0_291_818)">
<path d="M13.0612 64H50.9388C58.1551 64 64 58.1551 64 50.9388V13.0612C64 5.8449 58.1551 0 50.9388 0H13.0612C5.8449 0 0 5.8449 0 13.0612V50.9388C0 58.1551 5.8449 64 13.0612 64Z" fill="#00005B"/>
<path d="M12.4082 46.6219V17.4628C12.4082 17.2603 12.4931 17.1493 12.689 17.1493C13.1723 17.1493 13.6294 17.1493 14.2825 17.1232C14.9617 17.0905 15.667 17.0905 16.4311 17.0644C17.2017 17.0383 18.0245 17.0383 18.8996 17.0056C19.7813 16.9795 20.6302 16.9795 21.4792 16.9795C23.8041 16.9795 25.7372 17.2603 27.3241 17.8546C28.7413 18.3379 30.0409 19.1281 31.1184 20.1795C32.0262 21.0872 32.738 22.1909 33.1886 23.4056C33.6131 24.5942 33.8417 25.8154 33.8417 27.0889C33.8417 29.5183 33.2735 31.5297 32.1437 33.1166C31.0074 34.7036 29.4204 35.8921 27.5788 36.5713C25.6458 37.2766 23.5233 37.5313 21.1984 37.5313C20.5192 37.5313 20.0621 37.5313 19.7813 37.5052C19.4939 37.4791 19.1021 37.4791 18.56 37.4791V46.5632C18.5862 46.7591 18.449 46.9289 18.2466 46.9615H12.7478C12.5192 46.9615 12.4082 46.844 12.4082 46.5893V46.6219ZM18.5862 32.1566C18.9845 32.1828 19.3568 32.2089 19.6964 32.2089H21.1984C22.3021 32.2089 23.4123 32.0391 24.4572 31.6995C25.3649 31.4448 26.1617 30.9093 26.7821 30.1975C27.3764 29.4921 27.6637 28.5321 27.6637 27.2848C27.6898 26.4097 27.4613 25.5281 27.0107 24.764C26.5371 24.029 25.8417 23.464 25.0253 23.1509C23.9739 22.7264 22.8441 22.5566 21.6817 22.5828C20.9437 22.5828 20.2907 22.5828 19.7486 22.6154C19.187 22.5828 18.7886 22.6154 18.5862 22.6415V32.1566ZM37.9233 24.3134H42.8866C43.1739 24.3134 43.396 24.5093 43.4809 24.764C43.5658 24.9926 43.6245 25.2146 43.6507 25.4758C43.7094 25.7566 43.7682 26.0701 43.7943 26.3509C43.8204 26.6644 43.8531 27.004 43.8531 27.3697C44.7021 26.377 45.7209 25.5607 46.8833 24.9338C48.1894 24.1958 49.6915 23.8301 51.1935 23.8301C51.396 23.804 51.5658 23.9411 51.5919 24.1436V29.773C51.5919 30.0015 51.4482 30.0864 51.1413 30.0864C50.116 30.0603 49.0711 30.1452 48.0784 30.3673C47.2556 30.537 46.4588 30.7917 45.6947 31.1379C45.1527 31.3926 44.6433 31.7321 44.2515 32.1828V46.6219C44.2515 46.9028 44.1339 47.0138 43.8792 47.0138H38.2955C38.2431 47.023 38.1892 47.0215 38.1373 47.0092C38.0855 46.997 38.0366 46.9742 37.9938 46.9424C37.951 46.9107 37.9152 46.8705 37.8885 46.8243C37.8617 46.7782 37.8447 46.7271 37.8384 46.6742V30.8766C37.8384 30.1975 37.8384 29.4921 37.8123 28.7542C37.7862 28.0228 37.7862 27.2848 37.7535 26.5468C37.7535 25.9003 37.7013 25.2734 37.6425 24.6203C37.6164 24.4832 37.7013 24.3395 37.8384 24.3134C37.8384 24.2807 37.8972 24.2807 37.9233 24.3134Z" fill="#9999FF"/>
</g>
<defs>
<clipPath id="clip0_291_818">
<rect width="64" height="64" rx="12" fill="white"/>
</clipPath>
</defs>
</svg>
