<svg width="64" height="64" viewBox="0 0 64 64" fill="none" xmlns="http://www.w3.org/2000/svg">
<path d="M11.3333 0H52.6667C60.2222 0 64 3.87464 64 11.6239V52.3761C64 60.1254 60.2222 64 52.6667 64H11.3333C3.77778 64 0 60.1254 0 52.3761V11.6239C0 3.87464 3.77778 0 11.3333 0Z" fill="#00005B"/>
<path d="M25.7106 38.291H15.793L13.7751 44.7323C13.7476 44.8495 13.6811 44.9533 13.5871 45.0256C13.493 45.0979 13.3773 45.1344 13.2599 45.1286H8.2367C7.95012 45.1286 7.84994 44.9672 7.93616 44.6442L16.5228 19.3853C16.6087 19.1211 16.6946 18.8629 16.7804 18.5251C16.8929 17.9377 16.9504 17.3405 16.9522 16.7419C16.9463 16.7 16.9501 16.6573 16.9631 16.6172C16.9762 16.577 16.9981 16.5405 17.0273 16.5106C17.0564 16.4807 17.092 16.4581 17.1311 16.4447C17.1702 16.4313 17.2119 16.4274 17.2527 16.4334H24.0791C24.2789 16.4334 24.3934 16.5068 24.4226 16.6538L34.1684 44.688C34.2541 44.9819 34.1682 45.1288 33.9108 45.1286H28.3295C28.2336 45.1395 28.1372 45.1143 28.0582 45.0575C27.9791 45.0008 27.923 44.9165 27.9002 44.8204L25.7106 38.291ZM17.3386 32.8598H24.122C23.9503 32.273 23.7499 31.6125 23.521 30.8782C23.2916 30.1449 23.0483 29.3596 22.7911 28.5225L22.0183 26.0126C21.7607 25.1758 21.5245 24.3685 21.3098 23.5907C21.0952 22.8132 20.902 22.1013 20.7303 21.4549H20.6874C20.4458 22.6442 20.1448 23.82 19.7858 24.9776C19.3845 26.2987 18.9766 27.649 18.562 29.0288C18.1469 30.4091 17.7391 31.6861 17.3386 32.8598ZM49.9679 35.7838H41.5103C41.614 36.6421 41.8919 37.4685 42.3263 38.2098C42.8063 38.9439 43.4852 39.5179 44.2794 39.8612C45.3558 40.339 46.52 40.573 47.6927 40.5474C48.623 40.5291 49.5498 40.4248 50.4618 40.2356C51.2776 40.1226 52.0771 39.9089 52.8428 39.5989C52.9855 39.4821 53.0575 39.5551 53.0575 39.8193V44.0026C53.0645 44.1165 53.0423 44.2304 52.993 44.3327C52.9439 44.4127 52.8779 44.4804 52.7999 44.5307C51.9506 44.9166 51.0567 45.1898 50.1399 45.3436C48.8945 45.5835 47.6287 45.6941 46.3618 45.6737C44.329 45.6737 42.6259 45.3508 41.2524 44.705C39.9542 44.1183 38.8075 43.2287 37.9039 42.1069C37.0598 41.05 36.432 39.8295 36.0578 38.5183C35.6872 37.2241 35.4993 35.8822 35.4996 34.5333C35.4957 33.0603 35.7203 31.5961 36.1652 30.1956C36.5936 28.8296 37.271 27.5596 38.1615 26.4529C39.0398 25.359 40.1382 24.4727 41.3815 23.8546C42.6407 23.2239 44.1292 22.9975 45.8466 22.9975C47.2707 22.9607 48.6853 23.2464 49.9895 23.8344C51.0862 24.3141 52.0518 25.0619 52.8018 26.0126C53.5051 26.9435 54.0429 27.9943 54.3903 29.1169C54.7285 30.1986 54.9023 31.3274 54.9055 32.4635C54.9055 33.1095 54.884 33.6966 54.841 34.2248C54.7983 34.7532 54.7626 35.1349 54.7338 35.3697C54.7226 35.4668 54.677 35.5563 54.6058 35.6213C54.5345 35.6862 54.4424 35.7221 54.3471 35.722C54.1755 35.722 53.8822 35.744 53.4671 35.7882C53.052 35.8321 52.5369 35.8615 51.9218 35.8762C51.3058 35.8913 50.6551 35.7838 49.9682 35.7838H49.9679ZM41.5103 31.7726H47.1343C47.8214 31.7726 48.3295 31.7653 48.6586 31.7507C48.8788 31.728 49.0915 31.6557 49.2812 31.5387V31.2745C49.2726 30.9301 49.2147 30.5889 49.1095 30.2617C48.8778 29.5106 48.4121 28.8581 47.7839 28.4047C47.1557 27.9513 46.3998 27.7219 45.6322 27.7518C44.9096 27.7069 44.1899 27.8787 43.5609 28.2462C42.9318 28.6137 42.4207 29.161 42.0898 29.8214C41.7957 30.4356 41.6 31.0945 41.5103 31.7726Z" fill="#9999FF"/>
</svg>
