<svg width="64" height="64" viewBox="0 0 64 64" fill="none" xmlns="http://www.w3.org/2000/svg">
<g clip-path="url(#clip0_288_636)">
<path d="M13.0612 64H50.9388C58.1551 64 64 58.1551 64 50.9388V13.0612C64 5.8449 58.1551 0 50.9388 0H13.0612C5.8449 0 0 5.8449 0 13.0612V50.9388C0 58.1551 5.8449 64 13.0612 64Z" fill="#FEFEFE"/>
<path d="M13.0612 64H18.2857V0H13.0612C5.8449 0 0 5.8449 0 13.0612V50.9388C0 58.1551 5.8449 64 13.0612 64Z" fill="#EBEBEB"/>
<path d="M19.5923 22.2041H64.0004V20.898H19.5923V0H18.2861V64H19.5923V22.2041Z" fill="#DADADB"/>
<path d="M57.1431 25.5409L46.2762 10.6903L32.0003 9.14258L17.7244 10.6903L6.85742 25.5409L32.0003 54.8569L57.1431 25.5409Z" fill="#FFAE00"/>
<path d="M57.1431 25.5381H6.85742L32.0003 54.854L57.1431 25.5381Z" fill="#EC6C00"/>
<path d="M46.9686 25.5381H17.0322L32.0004 54.854L46.9686 25.5381Z" fill="#FFAE00"/>
<path d="M17.0322 25.5409H46.9686L32.0004 9.14258L17.0322 25.5409Z" fill="#FFEFB4"/>
<path d="M17.7244 10.6914L17.1366 25.5355H6.85742L12.1342 18.169L17.7244 10.6914ZM46.2762 10.6914L51.8664 18.169L57.1431 25.5355H46.864L46.2762 10.6914Z" fill="#FFAE00"/>
<path d="M17.7245 10.6903L32.0004 9.14258L17.0322 25.5409L17.7245 10.6903ZM46.2763 10.6903L46.9686 25.5409L32.0004 9.14258L46.2763 10.6903Z" fill="#FED305"/>
</g>
<defs>
<clipPath id="clip0_288_636">
<rect width="64" height="64" rx="12" fill="white"/>
</clipPath>
</defs>
</svg>
