<svg width="64" height="64" viewBox="0 0 64 64" fill="none" xmlns="http://www.w3.org/2000/svg">
<g clip-path="url(#clip0_288_650)">
<path d="M13.0612 64H50.9388C58.1551 64 64 58.1551 64 50.9388V13.0612C64 5.8449 58.1551 0 50.9388 0H13.0612C5.8449 0 0 5.8449 0 13.0612V50.9388C0 58.1551 5.8449 64 13.0612 64Z" fill="#231C23"/>
<path d="M24.4897 24.4901H31.9999V9.46973H24.4897C20.3428 9.46973 16.9795 12.833 16.9795 16.9799C16.9795 21.1269 20.3428 24.4901 24.4897 24.4901Z" fill="#FF683C"/>
<path d="M24.4897 39.5106H31.9999V24.4902H24.4897C20.3428 24.4902 16.9795 27.8535 16.9795 32.0004C16.9795 36.1474 20.3428 39.5106 24.4897 39.5106Z" fill="#AB6AFF"/>
<path d="M24.4897 54.5302C28.6366 54.5302 31.9999 51.1669 31.9999 47.02V39.5098H24.4897C20.3428 39.5098 16.9795 42.873 16.9795 47.02C16.9795 51.1669 20.3428 54.5302 24.4897 54.5302Z" fill="#17DC90"/>
<path d="M32 24.4901H39.5102C43.6571 24.4901 47.0204 21.1269 47.0204 16.9799C47.0204 12.833 43.6571 9.46973 39.5102 9.46973H32V24.4901Z" fill="#FF8678"/>
<path d="M39.5102 39.5106C43.6571 39.5106 47.0204 36.1474 47.0204 32.0004C47.0204 27.8535 43.6571 24.4902 39.5102 24.4902C35.3633 24.4902 32 27.8535 32 32.0004C32 36.1474 35.3633 39.5106 39.5102 39.5106Z" fill="#51CDFF"/>
</g>
<defs>
<clipPath id="clip0_288_650">
<rect width="64" height="64" rx="12" fill="white"/>
</clipPath>
</defs>
</svg>
