<svg width="64" height="64" viewBox="0 0 64 64" fill="none" xmlns="http://www.w3.org/2000/svg">
<g clip-path="url(#clip0_288_619)">
<path d="M12.3492 0.00423152C13.0099 0.00183225 13.6706 0.00146581 14.3313 0.00313221C14.8544 0.00383177 15.3773 0.00273246 15.9002 0.00193302C16.9227 0.000633896 17.9454 0.000933709 18.968 0.00173315C19.7994 0.00243271 20.6309 0.00253265 21.4624 0.00223283L21.8218 0.00203296L22.5446 0.00173315C24.8011 0.000933646 27.0576 0.00193302 29.3141 0.00353196C31.2479 0.00483108 33.1818 0.00453127 35.1157 0.00323215C37.6044 0.00135214 40.0931 0.00101903 42.5818 0.00223283L42.9397 0.00233277C43.7697 0.00263258 44.5996 0.0021329 45.4296 0.00143333C46.4418 0.000633834 47.454 0.000833709 48.4662 0.00243271C48.9822 0.00323221 49.498 0.00353196 50.014 0.00253265C50.4872 0.00163327 50.9604 0.0021329 51.4334 0.00373183C51.6037 0.00403165 51.7739 0.00393171 51.9442 0.00313221C55.2041 -0.00985923 58.1475 1.16087 60.4964 3.42987C62.679 5.60173 64.0141 8.5381 64.0407 11.6257C64.0411 11.8665 64.0401 12.1073 64.0391 12.3482C64.0415 13.0089 64.0419 13.6696 64.0402 14.3304C64.0395 14.8534 64.0406 15.3763 64.0414 15.8992C64.0427 16.9218 64.0424 17.9444 64.0416 18.967C64.0409 19.7985 64.0408 20.6299 64.0411 21.4615L64.0413 21.8208L64.0416 22.5436C64.0424 24.8002 64.0414 27.0567 64.0398 29.3131C64.0385 31.2469 64.0388 33.1808 64.0401 35.1147C64.0421 37.7227 64.0424 40.3307 64.041 42.9387C64.0407 43.7687 64.0412 44.5986 64.0419 45.4286C64.0427 46.4409 64.0425 47.453 64.0409 48.4652C64.0401 48.9812 64.0398 49.497 64.0408 50.013C64.0417 50.4862 64.0412 50.9594 64.0396 51.4325C64.0393 51.6028 64.0394 51.7729 64.0402 51.9432C64.0532 55.2238 62.862 58.1582 60.5877 60.5212C58.1408 62.9411 55.0849 64.0527 51.6951 64.0381C51.0343 64.0405 50.3736 64.0409 49.7129 64.0392C49.1899 64.0385 48.6671 64.0396 48.1441 64.0404C47.1216 64.0417 46.099 64.0414 45.0763 64.0406C44.2449 64.0399 43.4134 64.0398 42.5819 64.0401L42.2225 64.0403L41.4997 64.0406C39.2432 64.0414 36.9867 64.0404 34.7303 64.0388C32.7965 64.0375 30.8625 64.0378 28.9286 64.0391C26.4399 64.041 23.9512 64.0414 21.4625 64.0401L21.1047 64.04C20.2746 64.0397 19.4448 64.0402 18.6147 64.0409C17.6025 64.0417 16.5904 64.0415 15.5781 64.0399C15.0622 64.0391 14.5463 64.0388 14.0303 64.0398C13.5572 64.0407 13.084 64.0402 12.6109 64.0386C12.4406 64.0383 12.2704 64.0385 12.1001 64.0392C8.81959 64.0522 5.88512 62.861 3.52229 60.5867C1.10228 58.1398 -0.00938235 55.084 0.00520802 51.6941C0.00280877 51.0334 0.00244235 50.3726 0.00410877 49.7119C0.00480834 49.1889 0.00370902 48.6661 0.00290959 48.1431C0.00161046 47.1206 0.00191027 46.098 0.00270971 45.0754C0.00340927 44.2439 0.00350921 43.4125 0.00320934 42.5809L0.00300946 42.2215L0.00270971 41.4987C0.00191021 39.2422 0.00290959 36.9857 0.00450852 34.7293C0.00580765 32.7955 0.00550784 30.8616 0.00420871 28.9276C0.00232868 26.4389 0.00199556 23.9503 0.00320934 21.4616L0.00330927 21.1037C0.00360909 20.2736 0.0031094 19.4438 0.0024099 18.6137C0.0016104 17.6015 0.00181027 16.5894 0.00340921 15.5771C0.00420871 15.0612 0.00450846 14.5453 0.00350915 14.0294C0.00260977 13.5562 0.0031094 13.083 0.0047084 12.6099C0.00500821 12.4396 0.00490827 12.2694 0.00410877 12.0991C-0.00888266 8.81861 1.18233 5.88415 3.45663 3.52131C5.90351 1.10131 8.95939 -0.0103589 12.3493 0.00423152H12.3492Z" fill="#FEFEFF"/>
<path d="M36.9188 11.0347L37.1281 11.2681C37.3051 11.4554 37.3051 11.4554 37.5446 11.4551L37.787 11.4157L38.0255 11.3802L38.3179 11.3345C40.0303 11.1007 42.0488 11.02 43.7143 11.5344L43.9132 11.5945C47.2242 12.6164 49.9202 14.7158 51.5592 17.7927C52.8383 20.2968 53.1714 23.203 52.6522 25.9682C52.6065 26.2363 52.5745 26.4539 52.6085 26.7243C52.77 26.9498 52.77 26.9498 52.9957 27.1615C55.2362 29.5427 56.0844 32.6673 56.0167 35.8765L56.0062 36.2181L55.8888 36.0705C55.645 35.867 55.5025 35.881 55.1873 35.8814L54.8595 35.8796L54.498 35.8822L54.1152 35.8814C53.7638 35.8808 53.4123 35.882 53.061 35.8834C52.6822 35.8848 52.3036 35.8844 51.9249 35.8841C51.2686 35.884 50.6123 35.8849 49.9559 35.8866C49.0071 35.889 48.0581 35.8898 47.1091 35.8902C45.5696 35.8908 44.0301 35.8928 42.4907 35.8957C40.9949 35.8984 39.4992 35.9005 38.0036 35.9018L37.7243 35.9021L36.3372 35.9032C32.5005 35.9063 28.6637 35.9116 24.8268 35.9183C24.9629 35.6433 25.1328 35.3002 25.2689 35.0253C25.4741 34.6265 25.7062 34.2511 25.9511 33.8758C26.5344 32.978 26.5344 32.978 26.6256 31.9209C26.5264 31.6227 26.5264 31.6227 26.3633 31.3275L26.2732 31.1541C25.7815 30.2265 25.2373 29.3263 24.7035 28.4226C24.519 28.1098 24.3352 27.7967 24.1519 27.4832L23.9846 27.1972C23.8309 26.9291 23.6807 26.659 23.5339 26.3871L23.3868 26.1184C23.2693 25.901 23.154 25.6824 23.0409 25.4627C22.5955 24.5878 22.5955 24.5878 21.8429 23.9898C21.2837 23.8235 20.8146 23.8336 20.2923 24.0948C19.831 24.5012 19.5535 24.8238 19.5053 25.4502C19.5594 26.2616 20.0686 26.9735 20.461 27.6675L20.6459 27.9963C21.1985 28.9753 21.7634 29.9467 22.3324 30.9161L22.4859 31.1813C22.5744 31.3311 22.667 31.4784 22.7637 31.623C22.9488 31.9058 23.036 32.0634 22.9885 32.4038C22.7651 32.8448 22.5183 33.2672 22.2598 33.6885L22.0959 33.9586C21.8172 34.4177 21.5324 34.8733 21.2417 35.325C20.9699 35.7468 20.726 36.1783 20.4918 36.6221C20.3722 36.8403 20.2464 37.0551 20.1147 37.2662C19.5891 38.0835 19.5891 38.0835 19.4847 39.0271C19.6344 39.6465 19.9319 39.9523 20.4297 40.3154C20.9157 40.4774 21.3033 40.4543 21.7913 40.3029C22.261 40.0419 22.5184 39.7127 22.7782 39.2473C22.9678 38.955 23.1117 38.8653 23.4277 38.7164C23.7113 38.6894 23.9721 38.6784 24.2551 38.6824L24.5034 38.6822C24.7733 38.6824 25.0431 38.6847 25.3129 38.6871C25.9931 38.688 26.6733 38.6909 27.3536 38.6958C27.8565 38.6988 28.3596 38.7002 28.8626 38.7018C29.8492 38.705 30.8357 38.7101 31.8222 38.7164L31.9009 38.9245L32.0065 39.1973L32.1101 39.4679C32.322 39.9373 32.6546 40.219 33.1213 40.4153C33.3365 40.4458 33.3365 40.4458 33.5662 40.4427L33.8345 40.4457L34.1265 40.4459L34.4358 40.4485C34.7738 40.4509 35.1116 40.4517 35.4495 40.4525L36.1545 40.4551C36.6475 40.4568 37.1405 40.4576 37.6334 40.4579C38.2642 40.4584 38.895 40.4622 39.5259 40.4667C40.0116 40.4697 40.4971 40.4704 40.9827 40.4705C41.2152 40.4709 41.4477 40.4722 41.6802 40.4743C42.006 40.477 42.3318 40.4765 42.6575 40.4753L42.9471 40.4797C43.5826 40.4728 44.0365 40.351 44.5138 39.9156C44.7304 39.6134 44.7304 39.6134 44.8636 39.2847L45.0104 38.9612L45.1134 38.7164C46.426 38.7141 47.7385 38.7124 49.0511 38.7112C49.6605 38.7107 50.2699 38.71 50.8793 38.7089C51.467 38.7078 52.0547 38.7072 52.6424 38.7069C52.8671 38.7067 53.0918 38.7064 53.3164 38.7059C53.6301 38.7051 53.9438 38.705 54.2575 38.705L54.5413 38.704L54.7995 38.7044L55.0246 38.7041C55.2068 38.7164 55.2068 38.7164 55.4066 38.8164C55.3498 39.3777 55.1425 39.8263 54.9007 40.3279L54.7783 40.583C53.5126 43.1679 51.3835 45.2967 48.711 46.4113C48.5572 46.4585 48.4025 46.5028 48.2469 46.544C47.3992 46.7459 47.3992 46.7459 46.8076 47.3365C46.6742 47.6759 46.5838 48.0272 46.487 48.3784C45.6147 51.0918 43.2339 53.4458 40.7476 54.7308C37.8567 56.1579 34.4416 56.4367 31.3663 55.4866C29.741 54.9065 28.2308 54.039 26.9547 52.87C26.7016 52.6487 26.7016 52.6487 26.3781 52.5671L26.1634 52.6135L25.9472 52.6545L25.5093 52.7589C22.576 53.2586 19.3267 52.6584 16.8403 51.0274C14.0005 49.0082 12.0079 46.3635 11.2953 42.9084C11.198 42.2638 11.195 41.6252 11.2022 40.9743C11.2046 40.7455 11.2042 40.5167 11.2036 40.2878C11.2051 39.56 11.2314 38.8587 11.393 38.1454C11.4399 37.8945 11.454 37.6719 11.4357 37.4173C11.2645 37.1747 11.2645 37.1747 11.0297 36.9489C9.46697 35.2862 8.45384 33.083 8.13785 30.8216L8.10467 30.6034C7.69134 27.3355 8.49311 24.0873 10.4704 21.4489C11.7945 19.7458 13.7844 17.9361 15.9498 17.4226C16.3382 17.3297 16.6823 17.2319 17.032 17.0307C17.2694 16.6156 17.3707 16.1919 17.4776 15.7314C17.9885 13.8446 19.6103 11.9319 21.1293 10.7349H21.3291V10.535C25.9231 6.97058 32.5566 7.2453 36.9188 11.0347Z" fill="#859FFF"/>
<path d="M12.572 37.6042L12.7987 37.6037C13.0459 37.6033 13.2931 37.6036 13.5403 37.6039C14.0715 37.6033 14.6028 37.6034 15.134 37.6041C15.5957 37.6047 16.0574 37.6044 16.519 37.6038C16.8733 37.6034 17.2276 37.6036 17.5819 37.6038C17.7522 37.6038 17.9224 37.6038 18.0927 37.6036C18.3303 37.6033 18.5679 37.6037 18.8054 37.6043L19.0199 37.6036C19.5069 37.6058 19.5069 37.6058 19.7296 37.7172L19.6297 37.9607C19.4742 38.5145 19.4529 38.9942 19.6422 39.5409C19.927 39.9587 20.2398 40.2524 20.729 40.4154C21.2764 40.4574 21.6468 40.3829 22.128 40.1156C22.3916 39.8401 22.5921 39.5797 22.7776 39.2473C22.9672 38.955 23.1111 38.8654 23.4272 38.7165C23.7107 38.6895 23.9715 38.6785 24.2545 38.6825L24.5029 38.6823C24.7727 38.6825 25.0425 38.6848 25.3123 38.6872C25.9926 38.688 26.6728 38.6909 27.353 38.6959C27.8559 38.6989 28.359 38.7003 28.862 38.7019C29.8486 38.7051 30.8351 38.7102 31.8216 38.7165L31.9003 38.9246L32.0059 39.1974L32.1095 39.468C32.3214 39.9374 32.654 40.2191 33.1208 40.4154C33.3359 40.4458 33.3359 40.4458 33.5656 40.4427L33.8339 40.4457L34.1259 40.4459L34.4352 40.4485C34.7732 40.4509 35.1111 40.4517 35.4489 40.4525L36.154 40.4551C36.6469 40.4568 37.1399 40.4576 37.6328 40.4579C38.2637 40.4584 38.8945 40.4622 39.5253 40.4667C40.011 40.4697 40.4965 40.4704 40.9821 40.4705C41.2146 40.4709 41.4472 40.4722 41.6796 40.4743C42.0054 40.477 42.3312 40.4765 42.657 40.4753L42.9465 40.4797C43.5821 40.4728 44.036 40.3511 44.5132 39.9157C44.7298 39.6135 44.7298 39.6135 44.863 39.2848L45.0098 38.9612L45.1129 38.7165C46.4254 38.7142 47.7379 38.7125 49.0505 38.7113C49.6599 38.7108 50.2693 38.7101 50.8787 38.709C51.4665 38.7079 52.0542 38.7073 52.6419 38.707C52.8665 38.7068 53.0912 38.7065 53.3158 38.706C53.6295 38.7052 53.9432 38.7051 54.2569 38.7051L54.5407 38.7041L54.799 38.7045L55.024 38.7042C55.2062 38.7165 55.2062 38.7165 55.4061 38.8164C55.3492 39.3778 55.1419 39.8264 54.9001 40.3279L54.7778 40.5831C53.512 43.1679 51.3829 45.2967 48.7105 46.4114C48.5566 46.4586 48.4019 46.5028 48.2463 46.5441C47.3986 46.746 47.3986 46.746 46.807 47.3366C46.6736 47.676 46.5832 48.0272 46.4864 48.3785C45.6141 51.0919 43.2333 53.4459 40.7469 54.7309C37.8561 56.158 34.441 56.4368 31.3656 55.4866C29.7404 54.9066 28.2302 54.0391 26.9541 52.87C26.701 52.6488 26.701 52.6488 26.3775 52.5671L26.1629 52.6135L25.9466 52.6545L25.5087 52.759C22.5754 53.2587 19.3261 52.6585 16.8397 51.0275C13.9999 49.0083 12.0073 46.3635 11.2947 42.9084C11.1974 42.2638 11.1944 41.6253 11.2016 40.9744C11.204 40.7455 11.2036 40.5168 11.203 40.2879C11.2067 38.3737 11.2067 38.3737 11.535 37.7172C11.8876 37.5996 12.2053 37.6032 12.572 37.6042Z" fill="#4D5EFF"/>
<path d="M36.9181 11.0347L37.1273 11.2681C37.3043 11.4554 37.3043 11.4554 37.5438 11.4551L37.7862 11.4157L38.0247 11.3802L38.3171 11.3345C40.0295 11.1007 42.0481 11.02 43.7136 11.5344L43.9124 11.5945C47.2234 12.6164 49.9195 14.7158 51.5584 17.7927C52.1054 18.8636 52.4759 19.9427 52.6889 21.128L52.7265 21.3324C52.8449 22.0776 52.8076 22.7467 52.8076 23.5264L9.23633 23.6264C10.3225 20.911 12.6996 18.7957 15.329 17.6099C15.5343 17.5296 15.7347 17.4735 15.9491 17.4227C16.3374 17.3297 16.6816 17.2318 17.0312 17.0307C17.2686 16.6156 17.37 16.1919 17.4768 15.7314C17.9878 13.8446 19.6095 11.9319 21.1285 10.7349H21.3283V10.535C25.9223 6.97058 32.5558 7.2453 36.9181 11.0347Z" fill="#A2A4FF"/>
<path d="M12.572 37.6042L12.7987 37.6037C13.0459 37.6033 13.293 37.6036 13.5403 37.6039C14.0715 37.6033 14.6028 37.6034 15.134 37.6041C15.5957 37.6047 16.0574 37.6044 16.519 37.6038C16.8733 37.6034 17.2275 37.6036 17.5819 37.6038C17.7522 37.6038 17.9224 37.6038 18.0927 37.6036C18.3303 37.6033 18.5679 37.6037 18.8054 37.6043L19.0199 37.6036C19.5068 37.6058 19.5068 37.6058 19.7296 37.7172L19.6297 37.9607C19.4742 38.5145 19.4529 38.9942 19.6421 39.5409C19.927 39.9587 20.2398 40.2524 20.7289 40.4154C21.2764 40.4574 21.6468 40.3829 22.128 40.1156C22.3915 39.8401 22.5921 39.5797 22.7776 39.2473C22.9672 38.955 23.1111 38.8654 23.4272 38.7165C23.7107 38.6895 23.9715 38.6785 24.2545 38.6825L24.5028 38.6823C24.7727 38.6825 25.0425 38.6848 25.3123 38.6872C25.9925 38.688 26.6727 38.6909 27.353 38.6959C27.8559 38.6989 28.359 38.7003 28.862 38.7019C29.8486 38.7051 30.8351 38.7102 31.8216 38.7165L31.9003 38.9246L32.0059 39.1974L32.1095 39.468C32.3214 39.9374 32.654 40.2191 33.1207 40.4154C33.3359 40.4458 33.3359 40.4458 33.5656 40.4427L33.8339 40.4457L34.1259 40.4459L34.4352 40.4485C34.7732 40.4509 35.111 40.4517 35.4489 40.4525L36.1539 40.4551C36.6469 40.4568 37.1399 40.4576 37.6328 40.4579C38.2637 40.4584 38.8944 40.4622 39.5253 40.4667C40.011 40.4697 40.4965 40.4704 40.9821 40.4705C41.2146 40.4709 41.4472 40.4722 41.6796 40.4743C42.0054 40.477 42.3312 40.4765 42.6569 40.4753L42.9465 40.4797C43.582 40.4728 44.0359 40.3511 44.5132 39.9157C44.7298 39.6135 44.7298 39.6135 44.863 39.2848L45.0098 38.9612L45.1128 38.7165C46.4254 38.7142 47.7379 38.7125 49.0505 38.7113C49.6599 38.7108 50.2693 38.7101 50.8787 38.709C51.4664 38.7079 52.0541 38.7073 52.6419 38.707C52.8665 38.7068 53.0912 38.7065 53.3158 38.706C53.6295 38.7052 53.9432 38.7051 54.2569 38.7051L54.5407 38.7041L54.7989 38.7045L55.024 38.7042C55.2062 38.7165 55.2062 38.7165 55.406 38.8164C55.3492 39.3778 55.1419 39.8264 54.9001 40.3279L54.7777 40.5831C54.0647 42.0391 53.0823 43.2964 51.9083 44.4127L51.8084 44.1129H11.6349C11.1848 42.3127 11.1848 42.3127 11.1892 41.6314C11.1888 41.4074 11.1904 41.1834 11.1942 40.9594C11.1977 40.7323 11.1982 40.5053 11.1981 40.2782C11.2074 38.3724 11.2074 38.3724 11.535 37.7172C11.8876 37.5996 12.2053 37.6032 12.572 37.6042Z" fill="#5E75FF"/>
<path d="M14.7841 18.767C14.944 18.7665 15.1039 18.7658 15.2637 18.7648C15.7026 18.763 16.1414 18.7642 16.5802 18.7659C17.0536 18.7672 17.5271 18.7657 18.0004 18.7645C18.9275 18.7628 19.8547 18.7636 20.7818 18.7653C21.535 18.7667 22.2882 18.7671 23.0413 18.7668L23.3661 18.7666L24.0191 18.7663C25.9439 18.7655 27.8687 18.7671 29.7936 18.7701C31.6625 18.773 33.5315 18.7737 35.4005 18.7721C37.6516 18.7701 39.9028 18.7702 42.154 18.7724L42.4772 18.7727C43.2299 18.7732 43.9827 18.7729 44.7355 18.7722C45.6522 18.7715 46.5688 18.7722 47.4855 18.7746C47.9535 18.7759 48.4213 18.7765 48.8893 18.7754C49.3173 18.7744 49.7452 18.7752 50.1731 18.7775C50.3283 18.7781 50.4836 18.7779 50.6388 18.777C50.849 18.7759 51.059 18.7772 51.2692 18.7792L51.6237 18.7795C51.9081 18.8298 51.9081 18.8298 52.0911 19.0144C52.816 20.3496 52.8076 22.0717 52.8076 23.5267L9.23633 23.6266C9.8866 22.0009 11.0228 20.5778 12.3698 19.4683C12.5209 19.3408 12.6643 19.2043 12.8067 19.0671C13.3819 18.6647 14.1116 18.7615 14.7841 18.767Z" fill="#92A1FF"/>
<path d="M21.6284 23.8267C22.4826 24.131 22.8355 24.8735 23.2278 25.6343C23.3867 25.9395 23.5574 26.2381 23.727 26.5374L23.9515 26.9371C24.44 27.8037 24.9354 28.6665 25.4295 29.5299L25.6247 29.8717C25.7656 30.1181 25.9075 30.3642 26.0497 30.61L26.1606 30.8026C26.2631 30.9801 26.3657 31.1575 26.4684 31.3349C26.7155 31.7867 26.7739 32.108 26.7251 32.6209C26.4226 33.4339 25.8986 34.1808 25.4459 34.918C25.335 35.1048 25.2259 35.2927 25.1186 35.4816L24.9263 35.8188L25.1241 35.8187C29.4541 35.8161 33.784 35.8143 38.1139 35.8133H38.3938C39.8907 35.8128 41.3876 35.812 42.8845 35.8111C44.4193 35.8101 45.9541 35.8096 47.4889 35.8094C48.4366 35.8093 49.3845 35.8088 50.3324 35.808C50.9813 35.8075 51.6305 35.8073 52.2795 35.8074C52.6545 35.8075 53.0296 35.8074 53.4046 35.8069C53.8103 35.8063 54.2159 35.8065 54.6215 35.8068L54.9847 35.8058L55.3113 35.8065L55.5954 35.8064C55.8059 35.8188 55.8059 35.8188 55.9058 35.9187C56.021 36.9466 55.7476 37.7902 55.5061 38.8168H45.1129L44.5133 40.016C43.9144 40.533 43.4364 40.5886 42.6633 40.5803L42.3538 40.583C42.0181 40.5851 41.6824 40.5837 41.3466 40.582C41.1123 40.5823 40.8778 40.5828 40.6434 40.5835C40.1527 40.5842 39.6622 40.5831 39.1716 40.5808C38.5439 40.5779 37.9163 40.5796 37.2886 40.5826C36.8047 40.5844 36.3208 40.5838 35.837 40.5826C35.6055 40.5822 35.3742 40.5826 35.1427 40.5837C34.8189 40.585 34.4951 40.5831 34.1714 40.5803L33.8836 40.5833C33.2507 40.5733 32.7971 40.4489 32.3214 40.016C32.1121 39.7049 32.1121 39.7049 31.9716 39.3851L31.8248 39.0615L31.7218 38.8168C30.6342 38.8122 29.5466 38.8086 28.4589 38.8064C27.954 38.8054 27.449 38.804 26.9439 38.8017C26.4567 38.7995 25.9695 38.7983 25.4822 38.7978C25.2962 38.7975 25.1102 38.7968 24.9242 38.7957C24.6639 38.7942 24.4035 38.794 24.1433 38.7941L23.9097 38.7919C23.3868 38.7931 23.3868 38.7931 22.9276 39.0166L22.8463 39.229C22.626 39.7626 22.2456 40.2071 21.7284 40.4657C21.1065 40.5693 20.6666 40.5701 20.1294 40.2159C19.6941 39.7856 19.4209 39.4318 19.3955 38.8028C19.4025 38.2611 19.6029 37.8974 19.8796 37.4427L20.0037 37.228C20.3295 36.6691 20.6733 36.1208 21.0125 35.57L21.1194 35.3966L21.3409 35.0371C21.5715 34.6628 21.7998 34.2874 22.0259 33.9104C22.1034 33.7817 22.1818 33.6535 22.2607 33.5257C22.3764 33.3373 22.4906 33.1482 22.6035 32.9581C22.6707 32.8476 22.7378 32.7371 22.807 32.6232C22.9562 32.3335 22.9562 32.3335 22.8674 32.0675L22.7277 31.8214L22.5833 31.544L22.4154 31.2422L22.2278 30.9043L22.0282 30.5472L21.8238 30.1807C21.2713 29.1933 20.7039 28.2145 20.1215 27.2444C20.0218 27.0777 19.9226 26.9106 19.8233 26.7434L19.6574 26.4667C19.4216 26.0203 19.3951 25.6295 19.4299 25.1258C19.7789 24.1201 20.6153 23.6858 21.6284 23.8267Z" fill="#6C89FF"/>
<path d="M26.5251 31.3217C30.6042 31.3165 34.6833 31.3128 38.7625 31.3107L39.0221 31.3106C40.411 31.3096 41.7999 31.3081 43.1887 31.3063C44.6131 31.3044 46.0374 31.3033 47.4617 31.3029C48.3411 31.3026 49.2206 31.3017 50.1 31.3001C50.7024 31.2991 51.3049 31.2987 51.9073 31.299C52.2553 31.2991 52.6032 31.299 52.9512 31.2979C53.3279 31.2969 53.7045 31.2971 54.0813 31.2976L54.4167 31.2959L54.7213 31.2971L54.985 31.2969C55.2061 31.3217 55.2061 31.3217 55.5059 31.5215C56.0301 33.0194 56.036 34.6525 56.0056 36.2184L55.8882 36.0708C55.6443 35.8674 55.5018 35.8814 55.1866 35.8818L54.8588 35.88L54.4974 35.8826L54.1145 35.8818C53.7632 35.8812 53.4117 35.8824 53.0603 35.8838C52.6816 35.8852 52.3029 35.8848 51.9243 35.8845C51.2679 35.8844 50.6116 35.8853 49.9553 35.887C49.0064 35.8894 48.0574 35.8902 47.1085 35.8906C45.569 35.8912 44.0295 35.8932 42.49 35.8961C40.9943 35.8988 39.4986 35.9009 38.003 35.9022L37.7237 35.9025L36.3366 35.9036C32.4998 35.9067 28.663 35.912 24.8262 35.9186C24.9623 35.6437 25.1322 35.3006 25.2683 35.0256C25.4734 34.6269 25.7056 34.2514 25.9504 33.8762C26.5307 32.9825 26.7153 32.4042 26.5251 31.3217Z" fill="#7596FF"/>
<path d="M20.9293 28.5236C21.098 28.762 21.2523 29.0102 21.3915 29.2669C21.4775 29.4204 21.5636 29.574 21.6499 29.7275L21.7856 29.9717C21.9331 30.2304 22.0877 30.4833 22.2448 30.7362L22.4007 30.9914C22.5008 31.155 22.6023 31.3177 22.7053 31.4795C23.0383 32.0335 23.0383 32.0335 22.9931 32.4156C22.7603 32.8467 22.5157 33.2713 22.2596 33.689L22.0958 33.959C21.7647 34.502 21.4263 35.0406 21.0808 35.5745C20.8661 35.9206 20.6745 36.2778 20.4851 36.6382L20.3297 36.9181L20.2703 37.117C20.1598 37.3951 20.0664 37.5299 19.83 37.7176C19.2149 37.8423 18.6027 37.8227 17.9772 37.8132C17.7927 37.813 17.6083 37.813 17.4237 37.8134C17.0374 37.8132 16.6512 37.8103 16.2649 37.8054C15.7695 37.7998 15.2741 37.798 14.7786 37.8C14.3979 37.8007 14.017 37.7988 13.6362 37.796C13.4535 37.795 13.2707 37.7946 13.088 37.7948C12.833 37.7943 12.578 37.7917 12.323 37.787L12.0936 37.7886C11.883 37.783 11.883 37.783 11.5355 37.7176C11.351 37.4802 11.351 37.4802 11.2357 37.2179C11.1151 37.0784 10.993 36.9402 10.8692 36.8036C9.33952 35.1138 8.11563 32.5404 8.12802 30.2389L8.12902 29.9168C8.12972 29.8075 8.13062 29.6982 8.13152 29.5854L8.13282 29.247C8.13402 28.9725 8.13562 28.6981 8.13772 28.4237C9.73166 28.406 11.3258 28.3894 12.9199 28.3742C13.66 28.3672 14.4001 28.3597 15.1403 28.3513C15.7854 28.3442 16.4304 28.3376 17.0757 28.3319C17.4173 28.3289 17.7588 28.3254 18.1003 28.3212C18.4818 28.3166 18.8631 28.3132 19.2446 28.3102L19.5874 28.3052L19.9028 28.3035L20.1762 28.3008C20.4653 28.327 20.6712 28.3909 20.9293 28.5236Z" fill="#7B9CFF"/>
<path d="M16.7321 50.4092H45.3132C44.4858 52.478 42.1198 54.1433 40.1366 55.0161C37.1198 56.2492 33.6688 56.4502 30.6229 55.206C29.2841 54.641 28.0273 53.8532 26.9546 52.8705C26.7015 52.6492 26.7015 52.6492 26.378 52.5676L26.1634 52.614L25.9471 52.655L25.5092 52.7594C22.4876 53.2741 19.3184 52.5974 16.7462 50.9752L16.5322 50.8089V50.6091H16.7321V50.4092Z" fill="#434FFF"/>
<path d="M11.7354 44.1133H51.8089C51.6327 44.818 50.9727 45.1454 50.3813 45.521C49.3651 46.1294 48.2797 46.6779 47.112 46.9114L47.0121 46.6116C42.1626 46.6064 37.3131 46.6028 32.4636 46.6006L32.1549 46.6005C30.5036 46.5995 28.8523 46.598 27.201 46.5962C25.5078 46.5943 23.8146 46.5932 22.1214 46.5928C21.0758 46.5926 20.0302 46.5917 18.9846 46.59C18.2685 46.589 17.5524 46.5886 16.8363 46.5889C16.4226 46.589 16.0088 46.5889 15.5951 46.5878C15.217 46.5868 14.8386 46.5868 14.4605 46.5874C14.3231 46.5875 14.1858 46.5872 14.0484 46.5866C13.8627 46.5861 13.6771 46.5862 13.4914 46.587L13.1779 46.5868C12.9165 46.5875 12.9165 46.5875 12.7347 46.8115C12.6046 46.5309 12.4756 46.2498 12.3474 45.9683L12.237 45.7311L12.1296 45.494L12.0313 45.2799C11.8955 44.9024 11.8224 44.5049 11.7354 44.1133Z" fill="#556AFF"/>
<path d="M12.5722 37.6042L12.7988 37.6037C13.0461 37.6033 13.2932 37.6036 13.5404 37.6039C14.0717 37.6033 14.6029 37.6034 15.1342 37.6041C15.5959 37.6047 16.0576 37.6044 16.5192 37.6038C16.8734 37.6034 17.2277 37.6036 17.5821 37.6038C17.7523 37.6038 17.9225 37.6038 18.0928 37.6036C18.3305 37.6033 18.568 37.6037 18.8056 37.6043L19.02 37.6036C19.507 37.6058 19.507 37.6058 19.7297 37.7172L19.6298 37.9607C19.4743 38.5145 19.453 38.9942 19.6423 39.5409C19.9271 39.9587 20.2399 40.2524 20.7291 40.4154C21.2765 40.4574 21.647 40.3829 22.1282 40.1156C22.3917 39.8401 22.5923 39.5797 22.7777 39.2473C22.9673 38.955 23.1112 38.8654 23.4273 38.7165C23.7108 38.6895 23.9716 38.6785 24.2547 38.6825L24.503 38.6823C24.7728 38.6825 25.0426 38.6848 25.3125 38.6872C25.9927 38.688 26.6729 38.6909 27.3531 38.6959C27.8561 38.6989 28.3591 38.7003 28.8621 38.7019C29.8488 38.7051 30.8352 38.7102 31.8218 38.7165L31.9004 38.9246L32.006 39.1974L32.1097 39.468C32.3215 39.9374 32.6541 40.2191 33.1209 40.4154C33.3361 40.4458 33.3361 40.4458 33.5657 40.4427L33.834 40.4457L34.126 40.4459L34.4353 40.4485C34.7733 40.4509 35.1112 40.4517 35.4491 40.4525L36.1541 40.4551C36.6471 40.4568 37.14 40.4576 37.6329 40.4579C38.2638 40.4584 38.8946 40.4622 39.5255 40.4667C40.0112 40.4697 40.4966 40.4704 40.9822 40.4705C41.2148 40.4709 41.4473 40.4722 41.6798 40.4743C42.0055 40.477 42.3313 40.4765 42.6571 40.4753L42.9466 40.4797C43.5822 40.4728 44.0361 40.3511 44.5134 39.9157C44.7299 39.6135 44.7299 39.6135 44.8631 39.2848L45.01 38.9612L45.113 38.7165C46.4255 38.7142 47.738 38.7125 49.0507 38.7113C49.6601 38.7108 50.2695 38.7101 50.8789 38.709C51.4666 38.7079 52.0543 38.7073 52.642 38.707C52.8667 38.7068 53.0913 38.7065 53.316 38.706C53.6297 38.7052 53.9434 38.7051 54.257 38.7051L54.5409 38.7041L54.7991 38.7045L55.0241 38.7042C55.2063 38.7165 55.2063 38.7165 55.4062 38.8164C55.3063 39.416 55.3063 39.416 54.7066 40.7152H11.2354C11.2354 38.3168 11.2354 38.3168 11.5352 37.7172C11.8877 37.5996 12.2054 37.6032 12.5722 37.6042Z" fill="#6580FF"/>
<path d="M21.6284 23.8267C22.4826 24.131 22.8355 24.8735 23.2278 25.6343C23.3867 25.9395 23.5574 26.2381 23.727 26.5374L23.9515 26.9371C24.44 27.8037 24.9354 28.6665 25.4295 29.5299L25.6247 29.8717C25.7656 30.1181 25.9075 30.3642 26.0497 30.61L26.1606 30.8026C26.2631 30.9801 26.3657 31.1575 26.4684 31.3349C26.7155 31.7867 26.7739 32.108 26.7251 32.6209C26.457 33.3413 26.0078 33.995 25.6102 34.6492C25.2856 35.184 24.9677 35.7226 24.6494 36.2612C24.5452 36.4371 24.4409 36.613 24.3363 36.7888C24.0154 37.3292 23.6958 37.8701 23.382 38.4147L23.2219 38.6895C23.125 38.8556 23.0292 39.0224 22.9345 39.1898C22.6236 39.7199 22.2403 40.2836 21.6282 40.4799C21.049 40.5837 20.6232 40.5415 20.1294 40.2159C19.6941 39.7856 19.4209 39.4318 19.3955 38.8028C19.4025 38.2611 19.6029 37.8974 19.8796 37.4427L20.0037 37.228C20.3295 36.6691 20.6733 36.1208 21.0125 35.57L21.1194 35.3966L21.3409 35.0371C21.5715 34.6628 21.7998 34.2874 22.0259 33.9104C22.1034 33.7817 22.1818 33.6535 22.2607 33.5257C22.3764 33.3373 22.4906 33.1482 22.6035 32.9581C22.6707 32.8476 22.7378 32.7371 22.807 32.6232C22.9562 32.3335 22.9562 32.3335 22.8674 32.0675L22.7277 31.8214L22.5833 31.544L22.4154 31.2422L22.2278 30.9043L22.0282 30.5472L21.8238 30.1807C21.2713 29.1933 20.7039 28.2145 20.1215 27.2444C20.0218 27.0777 19.9226 26.9106 19.8234 26.7434L19.6575 26.4667C19.4217 26.0203 19.3951 25.6295 19.4299 25.1258C19.7789 24.1201 20.6153 23.6858 21.6284 23.8267ZM33.5551 37.1039L33.8238 37.1021L34.1178 37.1018L34.4281 37.1003C34.7675 37.0988 35.1068 37.0981 35.4463 37.0976L36.1531 37.0959C36.6475 37.0949 37.142 37.0942 37.6364 37.0939C38.2698 37.0933 38.9032 37.0909 39.5367 37.0881C40.0235 37.0862 40.5104 37.0857 40.9972 37.0855C41.2308 37.0852 41.4643 37.0845 41.6978 37.0831C42.0246 37.0814 42.3513 37.0816 42.6781 37.0823L42.9703 37.0795C43.5664 37.0832 44.0224 37.1461 44.4778 37.5712C44.9328 38.1662 45.0007 38.5702 44.9131 39.3164C44.7164 39.8499 44.4258 40.1519 43.9272 40.4293C43.5215 40.5935 43.1067 40.5719 42.6747 40.5689L42.3652 40.5716C42.029 40.5738 41.6927 40.5731 41.3564 40.5722C41.1219 40.5728 40.8872 40.5734 40.6527 40.5742C40.1615 40.5752 39.6703 40.5747 39.1791 40.5732C38.5507 40.5715 37.9223 40.5739 37.2937 40.5774C36.8094 40.5796 36.3251 40.5794 35.8408 40.5786C35.6091 40.5786 35.3775 40.5792 35.1458 40.5806C34.8214 40.5824 34.4972 40.581 34.1729 40.5787L33.8848 40.5823C33.247 40.5733 32.8121 40.432 32.3214 40.016C31.9133 39.5494 31.8587 39.0863 31.883 38.4756C31.9576 37.9766 32.2149 37.7136 32.5775 37.3864C32.9096 37.1566 33.1609 37.1054 33.5551 37.1039Z" fill="#FDFEFF"/>
<path d="M9.43685 34.0195H21.9286C21.7622 34.4355 21.5914 34.7567 21.354 35.1313C21.044 35.6245 20.753 36.1294 20.4816 36.6448L20.3297 36.9176L20.2707 37.1158C20.16 37.3941 20.0664 37.5291 19.83 37.7171C19.2149 37.8418 18.6027 37.8222 17.9772 37.8127C17.7927 37.8125 17.6083 37.8125 17.4237 37.8129C17.0374 37.8127 16.6512 37.8098 16.2649 37.8049C15.7695 37.7993 15.2741 37.7975 14.7786 37.7995C14.3979 37.8002 14.017 37.7983 13.6362 37.7955C13.4535 37.7945 13.2707 37.7941 13.088 37.7943C12.833 37.7938 12.5779 37.7912 12.3229 37.7865L12.0936 37.7881C11.883 37.7825 11.883 37.7825 11.5355 37.7171C11.3515 37.4806 11.3515 37.4806 11.2357 37.2174C11.1119 37.0709 10.9863 36.9259 10.8589 36.7825C10.2499 36.1012 9.68528 35.3711 9.33691 34.5192L9.43685 34.0195Z" fill="#708EFF"/>
<path d="M24.9261 52.5078H25.8255L25.7256 52.7077C25.5191 52.7491 25.5191 52.7491 25.2696 52.7701L25.0194 52.7928L24.8262 52.8076L24.9261 52.5078Z" fill="#5C68FF"/>
</g>
<defs>
<clipPath id="clip0_288_619">
<rect width="64" height="64" rx="12" fill="white"/>
</clipPath>
</defs>
</svg>
