<svg width="64" height="64" viewBox="0 0 64 64" fill="none" xmlns="http://www.w3.org/2000/svg">
<g clip-path="url(#clip0_291_808)">
<path d="M13.0612 64H50.9388C58.1551 64 64 58.1551 64 50.9388V13.0612C64 5.8449 58.1551 0 50.9388 0H13.0612C5.8449 0 0 5.8449 0 13.0612V50.9388C0 58.1551 5.8449 64 13.0612 64Z" fill="#330000"/>
<path d="M32.0131 40.6592H21.8123L19.7225 47.1507C19.7002 47.2678 19.6349 47.3723 19.5394 47.4436C19.4439 47.5149 19.3252 47.5479 19.2066 47.536H14.0474C13.747 47.536 13.6621 47.3662 13.747 47.0396L22.5764 21.4331C22.6613 21.1588 22.7396 20.8584 22.8507 20.5254C22.9617 19.9441 23.0139 19.3368 23.0139 18.7294C22.9878 18.5923 23.0988 18.4552 23.236 18.4225H30.3413C30.5633 18.4225 30.6678 18.5074 30.7004 18.6445L40.7119 47.0919C40.7902 47.3988 40.7119 47.536 40.4376 47.536H34.7037C34.5078 47.5621 34.3184 47.4249 34.2662 47.229L32.0131 40.6592ZM30.3674 35.0494C30.2041 34.4747 29.9821 33.7825 29.7404 33.0641C29.4923 32.3196 29.2441 31.5164 28.996 30.687C28.7217 29.8315 28.4735 29.0021 28.1992 28.1466C27.9249 27.2911 27.6768 26.4878 27.4613 25.6911C27.2392 24.9139 27.0498 24.1956 26.8539 23.536H26.8017C26.5535 24.7245 26.2531 25.9066 25.8678 27.0952C25.4564 28.4209 25.0449 29.8054 24.6074 31.1833C24.2221 32.5939 23.8106 33.8935 23.3992 35.0494H30.3674ZM46.8245 23.2552C45.9233 23.2878 45.0417 22.9286 44.3886 22.2886C43.7551 21.6029 43.4286 20.6886 43.4547 19.7482C43.4286 18.8143 43.7813 17.9262 44.4409 17.2927C45.1004 16.6592 45.9755 16.3262 46.8833 16.3262C47.9543 16.3262 48.7772 16.6592 49.378 17.2927C49.9871 17.9628 50.3125 18.8431 50.2858 19.7482C50.3119 20.6886 49.9853 21.6029 49.3258 22.2886C48.6923 22.9547 47.7584 23.3139 46.8245 23.2552ZM43.7551 47.229V25.9654C43.7551 25.6911 43.8662 25.58 44.1143 25.58H49.5413C49.7894 25.58 49.9004 25.7172 49.9004 25.9654V47.229C49.9004 47.536 49.7894 47.6731 49.5413 47.6731H44.1666C43.8923 47.6731 43.7551 47.5098 43.7551 47.229Z" fill="#FF9A00"/>
</g>
<defs>
<clipPath id="clip0_291_808">
<rect width="64" height="64" rx="12" fill="white"/>
</clipPath>
</defs>
</svg>
