<svg width="64" height="64" viewBox="0 0 64 64" fill="none" xmlns="http://www.w3.org/2000/svg">
<path d="M11.3333 0H52.6667C60.2222 0 64 3.87464 64 11.6239V52.3761C64 60.1254 60.2222 64 52.6667 64H11.3333C3.77778 64 0 60.1254 0 52.3761V11.6239C0 3.87464 3.77778 0 11.3333 0Z" fill="#001E36"/>
<path d="M14.4111 44.8806V16.7428C14.4111 16.5377 14.497 16.4346 14.6687 16.4346C15.1261 16.4346 15.5439 16.4277 16.1738 16.4127C16.8031 16.3981 17.4829 16.3834 18.213 16.3686C18.943 16.3541 19.7158 16.3394 20.5317 16.3246C21.3473 16.31 22.1558 16.3027 22.9573 16.3027C25.1322 16.3027 26.964 16.5815 28.4527 17.1391C29.7957 17.605 31.0204 18.3722 32.0378 19.3849C32.9001 20.2625 33.5666 21.3217 33.9911 22.4891C34.3928 23.6254 34.5962 24.8254 34.5922 26.034C34.5922 28.3831 34.0627 30.3206 33.0037 31.8465C31.9377 33.3789 30.4392 34.5393 28.7103 35.1712C26.9071 35.8613 24.9034 36.0954 22.6997 36.0954C22.0698 36.0954 21.6262 36.0881 21.3687 36.0735C21.1111 36.059 20.7247 36.0515 20.2095 36.0511V44.8366C20.2171 44.8905 20.2124 44.9454 20.1956 44.9971C20.1789 45.0487 20.1507 45.0956 20.1131 45.1341C20.0756 45.1726 20.0299 45.2016 19.9796 45.2188C19.9292 45.236 19.8757 45.2409 19.8231 45.2332H14.7117C14.5111 45.2332 14.4111 45.1161 14.4111 44.8806ZM20.2095 21.7189V30.8964C20.5811 30.9259 20.9246 30.9406 21.2399 30.9404H22.6567C23.6992 30.9368 24.7349 30.7673 25.7266 30.4377C26.5771 30.1785 27.337 29.6741 27.9159 28.9846C28.4742 28.3098 28.7533 27.3704 28.7533 26.1664C28.7759 25.3146 28.5598 24.4741 28.1306 23.7445C27.6794 23.0391 27.0274 22.4933 26.2631 22.1814C25.2652 21.7835 24.1992 21.5963 23.129 21.6309C22.4421 21.6309 21.8339 21.6382 21.3045 21.6528C20.7745 21.6681 20.4095 21.6901 20.2095 21.7189ZM51.1922 29.2275C50.3853 28.8022 49.5259 28.4912 48.6375 28.3027C47.6587 28.0724 46.658 27.9543 45.6538 27.9505C45.1106 27.9353 44.5682 28.002 44.0439 28.1485C43.7101 28.2247 43.4135 28.4198 43.2066 28.699C43.0667 28.9224 42.9922 29.1822 42.9919 29.4476C42.9998 29.7052 43.0903 29.9528 43.2495 30.1522C43.5003 30.453 43.8066 30.6999 44.1509 30.8786C44.7631 31.2167 45.3939 31.518 46.0402 31.7812C47.4811 32.2759 48.8579 32.9488 50.1402 33.7849C51.0139 34.3504 51.7369 35.1297 52.2442 36.0528C52.6707 36.9267 52.8843 37.8938 52.8666 38.8709C52.8922 40.1613 52.5327 41.4288 51.8362 42.5036C51.0905 43.5948 50.0547 44.4432 48.8522 44.9477C47.5494 45.5346 45.9395 45.8282 44.0223 45.8283C42.8043 45.841 41.5884 45.7229 40.3943 45.4761C39.4536 45.2991 38.5379 45.0033 37.6682 44.5954C37.5743 44.5457 37.4962 44.4696 37.443 44.376C37.3898 44.2824 37.3636 44.1752 37.3677 44.067V39.3113C37.3625 39.2647 37.3698 39.2175 37.3887 39.1749C37.4076 39.1322 37.4375 39.0956 37.4751 39.069C37.512 39.0476 37.5543 39.0382 37.5965 39.0421C37.6386 39.046 37.6786 39.063 37.7111 39.0908C38.7383 39.7121 39.8537 40.1653 41.017 40.434C42.0424 40.6977 43.0941 40.8381 44.1511 40.8525C45.1527 40.8525 45.8897 40.7203 46.3621 40.4559C46.5754 40.3558 46.7559 40.1944 46.8816 39.9912C47.0074 39.7881 47.073 39.5519 47.0706 39.3113C47.0706 38.9302 46.8559 38.5632 46.4266 38.2104C45.9973 37.8582 45.1243 37.4324 43.8077 36.9332C42.4596 36.452 41.1813 35.7855 40.0079 34.9519C39.1687 34.3532 38.4776 33.5615 37.9901 32.64C37.5679 31.7723 37.3545 30.8135 37.3677 29.8439C37.3652 28.6789 37.6772 27.5358 38.269 26.5414C38.944 25.4463 39.9132 24.5746 41.0599 24.0314C42.3191 23.3859 43.8934 23.063 45.7826 23.0627C46.8891 23.0535 47.9945 23.1344 49.0885 23.3047C49.8806 23.4078 50.655 23.6227 51.3898 23.9433C51.4481 23.9604 51.5018 23.9912 51.5465 24.0332C51.5913 24.0752 51.6259 24.1273 51.6477 24.1854C51.6766 24.293 51.691 24.4042 51.6903 24.5158V28.963C51.6934 29.0147 51.6831 29.0664 51.6606 29.1128C51.638 29.1593 51.6039 29.1988 51.5618 29.2275C51.5044 29.2567 51.4411 29.272 51.377 29.272C51.3129 29.272 51.2496 29.2567 51.1922 29.2275Z" fill="#31A8FF"/>
</svg>
